<svg
    xmlns="https://www.w3.org/2000/svg"
    width="20"
    height="20"
    viewBox="0 0 20 20">
    <path
        id="instagram"
        fill="#616875"
        fill-rule="evenodd"
        d="M59.8770129,0.0601779167 C58.8126296,0.108724583 58.0856937,0.27778625 57.44962,0.525007083 C56.7920317,0.780524167 56.2343558,1.12245708 55.6783867,1.67838667 C55.1224571,2.23435583 54.7805242,2.79203167 54.5250071,3.44962 C54.2777863,4.08569375 54.1087246,4.81262958 54.0601779,5.87701292 C54.0115117,6.94361917 54,7.28416292 54,10.00002 C54,12.7158371 54.0115117,13.0563808 54.0601779,14.1229871 C54.1087246,15.1873704 54.2777863,15.9143062 54.5250071,16.55038 C54.7805242,17.2079683 55.1224571,17.7656442 55.6783867,18.3216133 C56.2343558,18.8775429 56.7920317,19.2194758 57.44962,19.4750329 C58.0856937,19.7222138 58.8126296,19.8912754 59.8770129,19.9398221 C60.9436192,19.9884883 61.2841629,20 64.00002,20 C66.7158371,20 67.0563808,19.9884883 68.1229871,19.9398221 C69.1873704,19.8912754 69.9143063,19.7222138 70.55038,19.4750329 C71.2079683,19.2194758 71.7656442,18.8775429 72.3216133,18.3216133 C72.8775429,17.7656442 73.2194758,17.2079683 73.4750329,16.55038 C73.7222137,15.9143062 73.8912754,15.1873704 73.9398221,14.1229871 C73.9884883,13.0563808 74,12.7158371 74,10.00002 C74,7.28416292 73.9884883,6.94361917 73.9398221,5.87701292 C73.8912754,4.81262958 73.7222137,4.08569375 73.4750329,3.44962 C73.2194758,2.79203167 72.8775429,2.23435583 72.3216133,1.67838667 C71.7656442,1.12245708 71.2079683,0.780524167 70.55038,0.525007083 C69.9143063,0.27778625 69.1873704,0.108724583 68.1229871,0.0601779167 C67.0563808,0.0115116667 66.7158371,0 64.00002,0 C61.2841629,0 60.9436192,0.0115116667 59.8770129,0.0601779167 Z M58.8648679,10.00002 C58.8648679,12.8360733 61.1639267,15.1351321 64.00002,15.1351321 C66.8360733,15.1351321 69.1351321,12.8360733 69.1351321,10.00002 C69.1351321,7.16392667 66.8360733,4.86486792 64.00002,4.86486792 C61.1639267,4.86486792 58.8648679,7.16392667 58.8648679,10.00002 Z M60.6666667,10.00002 C60.6666667,8.15904208 62.1590421,6.66666667 64.00002,6.66666667 C65.8409579,6.66666667 67.3333333,8.15904208 67.3333333,10.00002 C67.3333333,11.8409579 65.8409579,13.3333333 64.00002,13.3333333 C62.1590421,13.3333333 60.6666667,11.8409579 60.6666667,10.00002 Z M69.3380133,5.86196833 C68.6753042,5.86196833 68.1380317,5.32473542 68.1380317,4.66198667 C68.1380317,3.99923792 68.6753042,3.461965 69.3380133,3.461965 C70.0007621,3.461965 70.538035,3.99923792 70.538035,4.66198667 C70.538035,5.32473542 70.0007621,5.86196833 69.3380133,5.86196833 Z"
        transform="translate(-54)"></path>
</svg>