<svg
    xmlns="https://www.w3.org/2000/svg"
    width="22"
    height="19"
    viewBox="0 0 22 19">
    <path
        id="twitter"
        fill="#616875"
        fill-rule="evenodd"
        d="M22,3.24925943 C21.1916416,3.63076945 20.3213005,3.88876855 19.4083464,4.00404488 C20.3406702,3.41119547 21.0560542,2.47114483 21.3930855,1.35131808 C20.5201622,1.90025278 19.5555557,2.29960285 18.5250927,2.51368725 C17.7038212,1.58187072 16.5300227,1 15.230968,1 C12.7400364,1 10.7191407,3.1477068 10.7191407,5.7963163 C10.7191407,6.17233675 10.7578799,6.53737805 10.8353584,6.88869613 C7.08411092,6.68833495 3.75899517,4.7807872 1.53149012,1.87555088 C1.14280696,2.58642115 0.920701833,3.41119547 0.920701833,4.2894909 C0.920701833,5.95276278 1.71743871,7.42116305 2.92868446,8.28161795 C2.19005692,8.25828833 1.49275088,8.04008663 0.883254167,7.68327898 L0.883254167,7.74228965 C0.883254167,10.067028 2.43927933,12.0061395 4.50537083,12.445287 C4.12701758,12.5578187 3.72800358,12.6140844 3.31607696,12.6140844 C3.02553258,12.6140844 2.74144521,12.5852657 2.46639663,12.5289996 C3.04102838,14.4338027 4.70681475,15.821235 6.68251467,15.8582883 C5.138111,17.1455398 3.19081996,17.9126762 1.07694996,17.9126762 C0.712801375,17.9126762 0.352526625,17.8907188 0,17.8468041 C1.99765225,19.2054171 4.37107458,20 6.91882354,20 C15.2219288,20 19.7608735,12.6923079 19.7608735,6.35348513 C19.7608735,6.14488982 19.7569996,5.93629453 19.7492515,5.73181652 C20.6312145,5.05525455 21.3969594,4.21126742 22,3.24925943"
        transform="translate(0 -1)"></path>
</svg>